<svg xmlns="http://www.w3.org/2000/svg" xmlns:xlink="http://www.w3.org/1999/xlink" width="500" zoomAndPan="magnify" viewBox="0 0 375 374.999991" height="500" preserveAspectRatio="xMidYMid meet" version="1.0"><defs><clipPath id="4cc32fb869"><path d="M 96.261719 67 L 217 67 L 217 174 L 96.261719 174 Z M 96.261719 67 " clip-rule="nonzero"/></clipPath><clipPath id="3118cafc04"><path d="M 96.261719 232 L 127 232 L 127 286 L 96.261719 286 Z M 96.261719 232 " clip-rule="nonzero"/></clipPath><clipPath id="6b4152f8d4"><path d="M 97 228 L 134 228 L 134 264 L 97 264 Z M 97 228 " clip-rule="nonzero"/></clipPath><clipPath id="ce87b28fe1"><path d="M 152.449219 178.570312 C 152.449219 178.570312 125.261719 170.179688 117.484375 194.238281 C 109.980469 217.472656 111.449219 228.277344 97.890625 235.65625 C 97.121094 236.078125 96.925781 237.101562 97.511719 237.757812 C 100.742188 241.34375 110.777344 251.207031 126.0625 254.378906 C 126.0625 254.378906 119.679688 271.6875 139.5 279.785156 L 139.324219 284.429688 C 139.324219 284.429688 196.183594 300.527344 245.855469 276.960938 C 250.214844 274.894531 252.414062 269.953125 251.070312 265.320312 L 222.605469 167.511719 C 222.605469 167.511719 202.886719 157.707031 180.359375 173.382812 C 180.359375 173.382812 182.113281 176.308594 187.550781 179.910156 C 187.550781 179.910156 184.109375 200.527344 166.34375 201.269531 C 148.574219 202.011719 151.011719 186.382812 152.449219 178.570312 Z M 152.449219 178.570312 " clip-rule="nonzero"/></clipPath><clipPath id="a0664c2f7d"><path d="M 141 168 L 198 168 L 198 209 L 141 209 Z M 141 168 " clip-rule="nonzero"/></clipPath><clipPath id="ca29d8b176"><path d="M 152.449219 178.570312 C 152.449219 178.570312 125.261719 170.179688 117.484375 194.238281 C 109.980469 217.472656 111.449219 228.277344 97.890625 235.65625 C 97.121094 236.078125 96.925781 237.101562 97.511719 237.757812 C 100.742188 241.34375 110.777344 251.207031 126.0625 254.378906 C 126.0625 254.378906 119.679688 271.6875 139.5 279.785156 L 139.324219 284.429688 C 139.324219 284.429688 196.183594 300.527344 245.855469 276.960938 C 250.214844 274.894531 252.414062 269.953125 251.070312 265.320312 L 222.605469 167.511719 C 222.605469 167.511719 202.886719 157.707031 180.359375 173.382812 C 180.359375 173.382812 182.113281 176.308594 187.550781 179.910156 C 187.550781 179.910156 184.109375 200.527344 166.34375 201.269531 C 148.574219 202.011719 151.011719 186.382812 152.449219 178.570312 Z M 152.449219 178.570312 " clip-rule="nonzero"/></clipPath><clipPath id="f338aed1ab"><path d="M 245 207 L 274.367188 207 L 274.367188 239.757812 L 245 239.757812 Z M 245 207 " clip-rule="nonzero"/></clipPath><clipPath id="a1cf01a0bd"><path d="M 216.996094 165.640625 C 228.945312 166.59375 268.03125 213.425781 273.917969 220.554688 C 274.359375 221.085938 274.347656 221.851562 273.894531 222.375 C 270.261719 226.558594 254.195312 243.515625 236.390625 238.449219 L 217 165.640625 Z M 216.996094 165.640625 " clip-rule="nonzero"/></clipPath><clipPath id="3447476b00"><path d="M 96.261719 107 L 164 107 L 164 172 L 96.261719 172 Z M 96.261719 107 " clip-rule="nonzero"/></clipPath></defs><path fill="#8f9cd8" d="M 130.355469 74.832031 C 130.355469 74.832031 136.007812 64.710938 150.621094 60.523438 C 161.8125 57.316406 173.816406 59.171875 183.824219 65.113281 C 190.1875 68.890625 197.839844 74.789062 204.511719 83.710938 C 204.511719 83.710938 208.628906 87.796875 207.613281 99.636719 Z M 130.355469 74.832031 " fill-opacity="1" fill-rule="nonzero"/><path fill="#ff66c4" d="M 206.21875 90.363281 C 170.214844 56.816406 132.964844 71.351562 132.964844 71.351562 C 182.5 45.804688 206.21875 90.363281 206.21875 90.363281 Z M 206.21875 90.363281 " fill-opacity="1" fill-rule="nonzero"/><g clip-path="url(#4cc32fb869)"><path fill="#8f9cd8" d="M 216.597656 120.09375 C 216.597656 149.324219 189.667969 173.023438 156.453125 173.023438 C 123.238281 173.023438 96.300781 149.320312 96.300781 120.09375 C 96.300781 90.867188 123.234375 67.160156 156.445312 67.160156 C 189.660156 67.160156 216.589844 90.855469 216.589844 120.085938 Z M 216.597656 120.09375 " fill-opacity="1" fill-rule="nonzero"/></g><path fill="#fbb0b7" d="M 151.90625 166.851562 L 176.707031 162.367188 C 179.664062 181.570312 191.9375 180.828125 191.9375 180.828125 L 184.234375 197.820312 L 169.023438 207.199219 L 144.875 193.507812 C 151.90625 190.175781 153.058594 173.339844 153.058594 173.339844 L 151.90625 166.863281 Z M 151.90625 166.851562 " fill-opacity="1" fill-rule="nonzero"/><path fill="#fbb0b7" d="M 144.875 258.273438 L 137.839844 286.402344 C 121.839844 281.082031 112.109375 275.207031 107.46875 271.933594 C 105.886719 270.820312 105.578125 268.625 106.742188 267.082031 C 111.289062 261.050781 111.5625 247.910156 111.5625 247.910156 C 127.105469 257.164062 144.875 258.273438 144.875 258.273438 Z M 144.875 258.273438 " fill-opacity="1" fill-rule="nonzero"/><g clip-path="url(#3118cafc04)"><path stroke-linecap="round" transform="matrix(0.538062, 0, 0, 0.538062, 69.367133, 58.969141)" fill="none" stroke-linejoin="miter" d="M 78.420952 351.150737 C 78.420952 351.150737 79.350212 380.219158 66.28249 391.922028 " stroke="#573517" stroke-width="2" stroke-opacity="1" stroke-miterlimit="10"/></g><path fill="#8c52ff" d="M 152.449219 178.570312 C 152.449219 178.570312 125.261719 170.179688 117.484375 194.238281 C 109.980469 217.472656 111.449219 228.277344 97.890625 235.65625 C 97.121094 236.078125 96.925781 237.101562 97.511719 237.757812 C 100.742188 241.34375 110.777344 251.207031 126.0625 254.378906 C 126.0625 254.378906 119.679688 271.6875 139.5 279.785156 L 139.324219 284.429688 C 139.324219 284.429688 196.183594 300.527344 245.855469 276.960938 C 250.214844 274.894531 252.414062 269.953125 251.070312 265.320312 L 222.605469 167.511719 C 222.605469 167.511719 202.886719 157.707031 180.359375 173.382812 C 180.359375 173.382812 182.113281 176.308594 187.550781 179.910156 C 187.550781 179.910156 184.109375 200.527344 166.34375 201.269531 C 148.574219 202.011719 151.011719 186.382812 152.449219 178.570312 Z M 152.449219 178.570312 " fill-opacity="1" fill-rule="nonzero"/><g clip-path="url(#6b4152f8d4)"><g clip-path="url(#ce87b28fe1)"><path fill="#8f9cd8" d="M 99.71875 228.605469 C 99.71875 228.605469 115.46875 243.320312 133.019531 250.132812 L 130.355469 263.207031 L 69.367188 242.726562 Z M 99.71875 228.605469 " fill-opacity="1" fill-rule="nonzero"/></g></g><g clip-path="url(#a0664c2f7d)"><g clip-path="url(#ca29d8b176)"><path fill="#8f9cd8" d="M 197.125 168.234375 L 192.820312 189.144531 C 153.875 237.421875 141.742188 180.828125 141.742188 180.828125 L 197.121094 168.234375 Z M 197.125 168.234375 " fill-opacity="1" fill-rule="nonzero"/></g></g><path stroke-linecap="round" transform="matrix(0.538062, 0, 0, 0.538062, 69.367133, 58.969141)" fill="none" stroke-linejoin="miter" d="M 157.066857 399.987717 C 157.066857 399.987717 209.882233 357.118329 229.447516 315.27258 " stroke="#573517" stroke-width="1" stroke-opacity="1" stroke-miterlimit="10"/><path fill="#000000" d="M 179.011719 170.757812 C 191.9375 163.632812 212.449219 162.960938 220.445312 165.875 C 223.59375 167.023438 225.992188 169.621094 226.847656 172.867188 L 251.984375 268.015625 C 252.851562 271.289062 251.59375 274.742188 248.84375 276.710938 C 230.382812 289.898438 202.074219 291.414062 202.074219 291.414062 C 203.015625 279.027344 165.707031 274.1875 182.628906 256.421875 C 195.753906 242.640625 188.742188 227.707031 184.9375 221.691406 C 182.84375 218.382812 181.5 214.65625 181.070312 210.765625 C 179.4375 196.023438 186.222656 181.078125 182.714844 178.214844 C 180.5625 176.460938 179.019531 170.761719 179.019531 170.761719 Z M 133.019531 207.835938 C 133.019531 207.835938 129.628906 233.796875 124.519531 255.066406 C 119.40625 276.335938 139.5 279.785156 139.5 279.785156 L 137.839844 286.402344 L 153.878906 289.625 C 153.878906 289.625 178.535156 269.007812 161.910156 252.71875 C 153.25 244.238281 147.632812 229.550781 153.878906 221.453125 C 158.597656 215.335938 153.691406 205.3125 151.625 200.640625 C 149.558594 195.96875 147.863281 191.691406 147.863281 191.691406 L 133.019531 207.828125 Z M 133.019531 207.835938 " fill-opacity="1" fill-rule="nonzero"/><path fill="#ff66c4" d="M 237.4375 253.652344 L 234.675781 231.574219 C 234.195312 227.75 230.6875 225.019531 226.867188 225.5 L 204.792969 228.265625 C 200.964844 228.742188 198.242188 232.246094 198.71875 236.074219 L 201.484375 258.148438 C 201.925781 261.683594 204.941406 264.277344 208.417969 264.277344 C 208.710938 264.277344 209 264.261719 209.289062 264.222656 L 231.367188 261.457031 C 233.210938 261.226562 234.863281 260.285156 236.015625 258.804688 C 237.167969 257.324219 237.671875 255.496094 237.441406 253.652344 Z M 204.921875 229.332031 L 226.996094 226.566406 C 227.246094 226.53125 227.492188 226.515625 227.734375 226.515625 C 229.125 226.515625 230.425781 227.011719 231.453125 227.84375 L 223.785156 237.117188 C 220.59375 240.972656 214.832031 241.550781 210.941406 238.40625 L 201.621094 230.886719 C 202.503906 230.0625 203.636719 229.492188 204.921875 229.332031 Z M 235.160156 258.144531 C 234.1875 259.398438 232.792969 260.195312 231.226562 260.386719 L 209.148438 263.152344 C 205.910156 263.554688 202.945312 261.253906 202.542969 258.015625 L 199.777344 235.9375 C 199.582031 234.367188 200.023438 232.867188 200.898438 231.6875 L 210.257812 239.242188 C 212.140625 240.765625 214.421875 241.507812 216.6875 241.507812 C 219.648438 241.507812 222.589844 240.242188 224.609375 237.800781 L 232.222656 228.597656 C 232.949219 229.449219 233.449219 230.507812 233.601562 231.703125 L 236.359375 253.78125 C 236.554688 255.339844 236.128906 256.890625 235.15625 258.144531 Z M 235.160156 258.144531 " fill-opacity="1" fill-rule="nonzero"/><path fill="#ff66c4" d="M 147.84375 260.472656 L 149.285156 240.527344 C 149.53125 237.066406 147.941406 234.339844 145.734375 234.441406 L 132.992188 235.035156 C 130.785156 235.136719 128.785156 238.03125 128.53125 241.492188 L 127.089844 261.4375 C 126.859375 264.628906 128.199219 267.199219 130.148438 267.496094 C 130.308594 267.523438 130.476562 267.527344 130.640625 267.523438 L 143.382812 266.929688 C 144.449219 266.882812 145.503906 266.183594 146.347656 264.957031 C 147.191406 263.734375 147.726562 262.140625 147.84375 260.472656 Z M 132.917969 235.996094 L 145.660156 235.40625 C 145.804688 235.398438 145.945312 235.40625 146.078125 235.425781 C 146.859375 235.546875 147.515625 236.09375 147.984375 236.929688 L 142.429688 244.550781 C 140.121094 247.722656 136.8125 247.753906 135.058594 244.617188 L 130.855469 237.109375 C 131.460938 236.449219 132.175781 236.039062 132.917969 236.003906 Z M 145.960938 264.292969 C 145.246094 265.328125 144.355469 265.925781 143.453125 265.960938 L 130.710938 266.554688 C 128.84375 266.640625 127.492188 264.332031 127.703125 261.40625 L 129.144531 241.457031 C 129.25 240.042969 129.699219 238.734375 130.351562 237.757812 L 134.570312 245.300781 C 135.417969 246.816406 136.59375 247.671875 137.863281 247.867188 C 139.519531 248.121094 141.339844 247.238281 142.800781 245.230469 L 148.3125 237.660156 C 148.609375 238.484375 148.742188 239.472656 148.660156 240.550781 L 147.21875 260.496094 C 147.117188 261.90625 146.664062 263.253906 145.953125 264.289062 Z M 145.960938 264.292969 " fill-opacity="1" fill-rule="nonzero"/><path stroke-linecap="butt" transform="matrix(0.538062, 0, 0, 0.538062, 69.367133, 58.969141)" fill="none" stroke-linejoin="miter" d="M 232.496651 281.332803 C 232.496651 284.563434 229.883107 287.176979 226.652476 287.176979 C 223.421845 287.176979 220.80104 284.563434 220.80104 281.332803 C 220.80104 278.102172 223.421845 275.481368 226.652476 275.481368 C 229.883107 275.481368 232.496651 278.102172 232.496651 281.332803 Z M 229.447516 373.721596 C 226.216885 373.721596 223.603341 376.3424 223.603341 379.573031 C 223.603341 382.796403 226.216885 385.417207 229.447516 385.417207 C 232.678147 385.417207 235.298952 382.796403 235.298952 379.573031 C 235.298952 376.3424 232.678147 373.721596 229.447516 373.721596 Z M 159.992575 373.721596 C 156.761944 373.721596 154.14114 376.3424 154.14114 379.573031 C 154.14114 382.796403 156.761944 385.417207 159.992575 385.417207 C 163.223206 385.417207 165.836751 382.796403 165.836751 379.573031 C 165.836751 376.3424 163.223206 373.721596 159.992575 373.721596 Z M 147.672617 281.332803 C 144.441986 281.332803 141.821182 283.946347 141.821182 287.176979 C 141.821182 290.40761 144.441986 293.028414 147.672617 293.028414 C 150.903249 293.028414 153.516793 290.40761 153.516793 287.176979 C 153.516793 283.946347 150.903249 281.332803 147.672617 281.332803 Z M 147.672617 281.332803 " stroke="#573517" stroke-width="1" stroke-opacity="1" stroke-miterlimit="10"/><path fill="#fbb0b7" d="M 270.226562 226.210938 C 270.226562 226.210938 272.683594 237.460938 270.226562 242.476562 C 267.765625 247.488281 262.019531 249.324219 255.359375 248.382812 L 263.613281 231.746094 L 270.21875 226.203125 Z M 270.226562 226.210938 " fill-opacity="1" fill-rule="nonzero"/><path fill="#8c52ff" d="M 216.996094 165.640625 C 228.945312 166.59375 268.03125 213.425781 273.917969 220.554688 C 274.359375 221.085938 274.347656 221.851562 273.894531 222.375 C 270.261719 226.558594 254.195312 243.515625 236.390625 238.449219 L 217 165.640625 Z M 216.996094 165.640625 " fill-opacity="1" fill-rule="nonzero"/><g clip-path="url(#f338aed1ab)"><g clip-path="url(#a1cf01a0bd)"><path fill="#8f9cd8" d="M 245.613281 228.605469 L 274.234375 207.195312 L 284.410156 221.457031 L 255.355469 239.386719 L 245.609375 228.609375 Z M 245.613281 228.605469 " fill-opacity="1" fill-rule="nonzero"/></g></g><path fill="#ff66c4" d="M 153.878906 170.757812 C 153.363281 173.578125 152.625 176.28125 152.734375 179.089844 C 152.910156 183.777344 153.855469 187.457031 152.03125 192.089844 C 150.296875 196.488281 147.089844 200.210938 145.558594 204.683594 C 143.363281 211.078125 144.867188 218.128906 146.957031 224.5625 C 151.097656 237.292969 156.773438 256.320312 144.875 267.152344 C 146.101562 256.933594 144.019531 236.652344 129.210938 224.8125 C 114.402344 212.96875 108.855469 202.234375 114.085938 184.777344 C 119.316406 167.324219 140.800781 172.03125 140.800781 172.03125 Z M 153.878906 170.757812 " fill-opacity="1" fill-rule="nonzero"/><path fill="#ff66c4" d="M 202.074219 113.035156 C 209.425781 149.675781 175.503906 164.984375 175.503906 164.984375 L 149.109375 105.367188 L 124.421875 143.160156 C 124.421875 143.160156 117.734375 139.3125 114.402344 117.476562 C 111.625 99.28125 120.074219 93.609375 127.085938 89.023438 C 127.925781 88.476562 130.320312 87.023438 131.140625 86.449219 C 149.855469 73.355469 194.898438 77.246094 202.074219 113.039062 Z M 202.074219 113.035156 " fill-opacity="1" fill-rule="nonzero"/><path fill="#fbb0b7" d="M 147.46875 90.230469 C 157.054688 102.273438 168.15625 113.027344 180.492188 122.230469 L 182.996094 124.097656 C 194.839844 114.289062 204.09375 122.800781 203.351562 136.863281 C 202.609375 150.929688 186.691406 154.078125 186.691406 154.078125 C 186.691406 154.078125 168.925781 179.429688 140.792969 172.027344 C 112.664062 164.625 122.289062 139.085938 122.289062 139.085938 C 120.070312 131.683594 120.441406 111.328125 120.441406 111.328125 C 134.875 108.734375 147.460938 90.230469 147.460938 90.230469 Z M 147.46875 90.230469 " fill-opacity="1" fill-rule="nonzero"/><path fill="#fbb0b7" d="M 211.25 204.234375 L 207.832031 204.777344 L 190.273438 178.328125 L 197.125 170.308594 C 203.355469 163.152344 200.761719 154.519531 200.761719 154.519531 C 200.761719 154.519531 196.199219 143.414062 203.394531 143.164062 C 210.585938 142.917969 213.871094 158.171875 213.871094 158.171875 Z M 211.25 204.234375 " fill-opacity="1" fill-rule="nonzero"/><path fill="#fbb0b7" d="M 228.648438 194.238281 C 228.648438 194.238281 246.664062 203.492188 257.027344 214.59375 C 267.390625 225.691406 278.648438 245.976562 260.988281 248.5 C 237.550781 251.855469 205.46875 203.300781 205.46875 203.300781 Z M 228.648438 194.238281 " fill-opacity="1" fill-rule="nonzero"/><path fill="#ff66c4" d="M 214.464844 211.6875 L 219.097656 208.746094 C 220.761719 207.691406 221.476562 205.753906 220.832031 204.25 C 220.734375 204.03125 220.601562 203.828125 220.449219 203.632812 L 191.222656 165.902344 L 187.550781 168.234375 L 209.261719 210.734375 C 209.375 210.949219 209.5 211.160156 209.660156 211.34375 C 210.742188 212.5625 212.804688 212.742188 214.464844 211.683594 Z M 185.113281 163.675781 L 188.171875 161.734375 L 191.222656 165.898438 L 187.550781 168.226562 L 185.113281 163.671875 Z M 185.113281 163.675781 " fill-opacity="1" fill-rule="nonzero"/><path fill="#ff66c4" d="M 215.246094 212.957031 L 219.917969 209.992188 C 220.9375 209.339844 221.242188 207.992188 220.589844 206.96875 L 212.222656 212.277344 C 212.875 213.300781 214.222656 213.601562 215.246094 212.953125 Z M 186.90625 168.640625 L 191.867188 165.496094 L 192.445312 166.398438 L 187.484375 169.546875 Z M 183.367188 163.066406 L 183.082031 162.617188 L 188.042969 159.46875 L 188.328125 159.921875 C 189.054688 161.0625 188.714844 162.574219 187.574219 163.300781 L 186.746094 163.828125 C 185.605469 164.554688 184.09375 164.214844 183.367188 163.074219 Z M 183.367188 163.066406 " fill-opacity="1" fill-rule="nonzero"/><path fill="#fbb0b7" d="M 206.21875 204.777344 C 206.21875 204.777344 195.210938 207.566406 190.769531 196.832031 C 186.332031 186.097656 181.191406 175.648438 190.769531 176.84375 C 196.878906 177.605469 194.574219 183.644531 202.613281 193.378906 C 207.300781 199.054688 203.394531 200.367188 206.21875 204.777344 Z M 206.21875 204.777344 " fill-opacity="1" fill-rule="nonzero"/><path fill="#fbb0b7" d="M 208.910156 190.863281 C 205.082031 188.96875 206.5625 180.421875 206.5625 180.421875 C 206.5625 180.421875 204.214844 181.285156 202.125 181.550781 C 200.03125 181.8125 196.199219 177.703125 198.421875 175.363281 C 201.414062 172.210938 203.480469 164.875 205.332031 162.28125 C 207.179688 159.6875 209.527344 157.101562 214.707031 158.332031 C 219.890625 159.566406 216.808594 166.351562 216.808594 166.351562 C 224.085938 167.828125 223.082031 180.910156 223.082031 180.910156 C 223.558594 174.125 227.171875 173.753906 229.144531 173.382812 C 231.121094 173.011719 234.449219 173.507812 236.175781 178.6875 C 237.90625 183.871094 228.648438 194.234375 228.648438 194.234375 C 223.714844 201.019531 220.453125 203.628906 220.453125 203.628906 L 217 199.167969 C 217 199.167969 212.738281 192.753906 208.914062 190.859375 Z M 208.910156 190.863281 " fill-opacity="1" fill-rule="nonzero"/><path fill="#8f9cd8" d="M 196.296875 134.261719 C 196.296875 149.324219 184.085938 161.535156 169.023438 161.535156 C 153.957031 161.535156 141.746094 149.324219 141.746094 134.261719 C 141.746094 119.195312 153.957031 106.984375 169.023438 106.984375 C 184.085938 106.984375 196.296875 119.195312 196.296875 134.261719 Z M 196.296875 134.261719 " fill-opacity="1" fill-rule="nonzero"/><path fill="#8c52ff" d="M 169.023438 166.136719 C 151.449219 166.136719 137.152344 151.839844 137.152344 134.265625 C 137.152344 116.691406 151.449219 102.394531 169.023438 102.394531 C 186.59375 102.394531 200.890625 116.691406 200.890625 134.265625 C 200.890625 151.839844 186.59375 166.136719 169.023438 166.136719 Z M 169.023438 109.921875 C 155.601562 109.921875 144.683594 120.839844 144.683594 134.261719 C 144.683594 147.679688 155.601562 158.597656 169.023438 158.597656 C 182.441406 158.597656 193.359375 147.679688 193.359375 134.261719 C 193.359375 120.839844 182.441406 109.921875 169.023438 109.921875 Z M 169.023438 109.921875 " fill-opacity="1" fill-rule="nonzero"/><path stroke-linecap="round" transform="matrix(0.538062, 0, 0, 0.538062, 69.367133, 58.969141)" fill="none" stroke-linejoin="miter" d="M 171.9931 135.373611 L 171.9931 148.913223 " stroke="#573517" stroke-width="5" stroke-opacity="1" stroke-miterlimit="10"/><path stroke-linecap="round" transform="matrix(0.538062, 0, 0, 0.538062, 69.367133, 58.969141)" fill="none" stroke-linejoin="miter" d="M 190.549264 126.197166 C 190.549264 126.197166 181.38008 96.852871 157.066857 97.767612 " stroke="#573517" stroke-width="1" stroke-opacity="1" stroke-miterlimit="10"/><path stroke-linecap="round" transform="matrix(0.538062, 0, 0, 0.538062, 69.367133, 58.969141)" fill="none" stroke-linejoin="miter" d="M 97.449007 122.153432 C 97.449007 122.153432 109.50035 110.697396 122.517253 130.400617 " stroke="#573517" stroke-width="1" stroke-opacity="1" stroke-miterlimit="10"/><path stroke-linecap="round" transform="matrix(0.538062, 0, 0, 0.538062, 69.367133, 58.969141)" fill="none" stroke-linejoin="miter" d="M 224.706837 126.197166 C 224.706837 126.197166 210.259745 133.602209 210.571918 156.463462 " stroke="#573517" stroke-width="1" stroke-opacity="1" stroke-miterlimit="10"/><path stroke-linecap="round" transform="matrix(0.538062, 0, 0, 0.538062, 69.367133, 58.969141)" fill="none" stroke-linejoin="miter" d="M 227.799531 148.913223 C 227.799531 148.913223 224.002632 136.927218 213.468596 139.940054 " stroke="#573517" stroke-width="1" stroke-opacity="1" stroke-miterlimit="10"/><g clip-path="url(#3447476b00)"><path stroke-linecap="round" transform="matrix(0.538062, 0, 0, 0.538062, 69.367133, 58.969141)" fill="none" stroke-linejoin="miter" d="M 118.299283 151.809901 C 118.299283 151.809901 109.943201 145.697111 100.948252 147.838766 " stroke="#573517" stroke-width="4" stroke-opacity="1" stroke-miterlimit="10"/></g><path stroke-linecap="round" transform="matrix(0.538062, 0, 0, 0.538062, 69.367133, 58.969141)" fill="none" stroke-linejoin="miter" d="M 165.836751 211.217216 C 165.836751 211.217216 181.532536 207.093624 190.542005 201.459984 " stroke="#573517" stroke-width="1" stroke-opacity="1" stroke-miterlimit="10"/><path stroke-linecap="round" transform="matrix(0.538062, 0, 0, 0.538062, 69.367133, 58.969141)" fill="none" stroke-linejoin="miter" d="M 122.517253 184.087174 L 132.97869 190.991287 " stroke="#573517" stroke-width="1" stroke-opacity="1" stroke-miterlimit="10"/><path stroke-linecap="round" transform="matrix(0.538062, 0, 0, 0.538062, 69.367133, 58.969141)" fill="none" stroke-linejoin="miter" d="M 268.570823 184.363048 C 268.570823 184.363048 260.018725 182.809441 253.717179 190.621035 C 247.422894 198.432628 245.339318 208.966664 242.602356 212.640146 " stroke="#573517" stroke-width="1" stroke-opacity="1" stroke-miterlimit="10"/><path stroke-linecap="round" transform="matrix(0.538062, 0, 0, 0.538062, 69.367133, 58.969141)" fill="none" stroke-linejoin="miter" d="M 252.940376 226.397553 C 252.940376 226.397553 261.768348 226.281395 271.097249 201.467244 " stroke="#573517" stroke-width="1" stroke-opacity="1" stroke-miterlimit="10"/><path stroke-linecap="round" transform="matrix(0.538062, 0, 0, 0.538062, 69.367133, 58.969141)" fill="none" stroke-linejoin="miter" d="M 255.58296 227.551868 C 255.58296 227.551868 246.18146 250.427641 271.097249 246.667041 " stroke="#573517" stroke-width="1" stroke-opacity="1" stroke-miterlimit="10"/><path stroke-linecap="round" transform="matrix(0.538062, 0, 0, 0.538062, 69.367133, 58.969141)" fill="none" stroke-linejoin="miter" d="M 276.382417 240.401795 C 276.382417 240.401795 284.557003 231.922295 285.479003 225.272277 " stroke="#573517" stroke-width="1" stroke-opacity="1" stroke-miterlimit="10"/><path stroke-linecap="round" transform="matrix(0.538062, 0, 0, 0.538062, 69.367133, 58.969141)" fill="none" stroke-linejoin="miter" d="M 260.708411 170.460444 C 260.708411 170.460444 254.341526 180.551629 246.63883 176.188462 C 239.647599 172.231846 242.587836 164.267796 242.587836 164.267796 " stroke="#573517" stroke-width="1" stroke-opacity="1" stroke-miterlimit="10"/><path stroke-linecap="round" transform="matrix(0.538062, 0, 0, 0.538062, 69.367133, 58.969141)" fill="none" stroke-linejoin="miter" d="M 301.240128 233.817115 C 301.240128 233.817115 279.097599 235.45784 287.446421 218.890873 " stroke="#573517" stroke-width="1" stroke-opacity="1" stroke-miterlimit="10"/><path stroke-linecap="round" transform="matrix(0.538062, 0, 0, 0.538062, 69.367133, 58.969141)" fill="none" stroke-linejoin="miter" d="M 262.472553 275.481368 C 262.472553 275.481368 289.602595 275.016738 296.477669 250.260665 C 296.477669 250.260665 313.117235 235.283604 309.690588 221.620575 " stroke="#573517" stroke-width="1" stroke-opacity="1" stroke-miterlimit="10"/><path stroke-linecap="round" transform="matrix(0.538062, 0, 0, 0.538062, 69.367133, 58.969141)" fill="none" stroke-linejoin="miter" d="M 249.099918 258.558668 C 249.099918 258.558668 245.107003 246.870317 240.300985 237.33088 " stroke="#573517" stroke-width="1" stroke-opacity="1" stroke-miterlimit="10"/><path stroke-linecap="round" transform="matrix(0.538062, 0, 0, 0.538062, 69.367133, 58.969141)" fill="none" stroke-linejoin="miter" d="M 205.990956 127.961309 C 205.990956 127.961309 214.288959 113.978847 222.187671 113.586815 " stroke="#573517" stroke-width="1" stroke-opacity="1" stroke-miterlimit="10"/><path stroke-linecap="round" transform="matrix(0.538062, 0, 0, 0.538062, 69.367133, 58.969141)" fill="none" stroke-linejoin="miter" d="M 205.990956 164.267796 C 205.990956 164.267796 208.437524 171.992271 214.092943 173.211925 " stroke="#573517" stroke-width="1" stroke-opacity="1" stroke-miterlimit="10"/><path stroke-linecap="round" transform="matrix(0.538062, 0, 0, 0.538062, 69.367133, 58.969141)" fill="none" stroke-linejoin="miter" d="M 369.860186 337.262652 C 369.860186 337.262652 370.332076 322.503387 367.34102 315.27258 " stroke="#573517" stroke-width="1" stroke-opacity="1" stroke-miterlimit="10"/><path stroke-linecap="round" transform="matrix(0.538062, 0, 0, 0.538062, 69.367133, 58.969141)" fill="none" stroke-linejoin="miter" d="M 182.686852 84.932205 C 182.686852 84.932205 239.749237 85.287937 238.587662 144.179803 " stroke="#573517" stroke-width="1" stroke-opacity="1" stroke-miterlimit="10"/><path stroke-linecap="round" transform="matrix(0.538062, 0, 0, 0.538062, 69.367133, 58.969141)" fill="none" stroke-linejoin="miter" d="M 157.066857 182.097976 C 157.066857 182.097976 166.700672 188.319664 173.808061 190.628294 " stroke="#573517" stroke-width="1" stroke-opacity="1" stroke-miterlimit="10"/></svg>